<svg xmlns="http://www.w3.org/2000/svg" viewBox="0 0 20 20.02">
  <defs>
    <style>
      .cls-1 {
        fill: #1E6BBE;
      }

      .cls-2 {
        fill: #fefefe;
      }

      .cls-3 {
        fill: #cfcfcf;
      }

      .cls-4 {
        fill: #fdfdfd;
      }
    </style>
  </defs>
  <title>box</title>
  <g id="图层_2" data-name="图层 2">
    <g id="图层_1-2" data-name="图层 1">
      <path class="cls-1" d="M0,0H20V20C18.75,20,.3,20,0,20ZM9.21,6.94c0,.24,0,.45,0,.65s0,.24.23.24h.92V12H9.49c-.25,0-.28,0-.28.26s0,.3,0,.45,0,.25.25.25h.93v2.87h5.48V4.14h-5.5v2.8ZM10,15.87V13.4H8.88V11.68H9.95V8.24H8.87c0-.56,0-1.11,0-1.66v0l0,0h1V4.14H4.13V15.87Z"
      />
      <path class="cls-2" d="M9.21,6.94h1.16V4.14h5.5V15.86H10.39V13H9.46c-.23,0-.25,0-.25-.25s0-.3,0-.45,0-.26.28-.26h.87V7.84H9.44c-.19,0-.23,0-.23-.24S9.21,7.18,9.21,6.94ZM12.52,9v2h2V9Z"
      />
      <path class="cls-2" d="M10,15.87H4.13V4.14H10V6.52h-1l0,0v0c0,.55,0,1.1,0,1.66H9.95v3.44H8.88V13.4H10ZM7.27,11V9h-2v2Z"
      />
      <path class="cls-3" d="M12.52,9h2v2h-2Zm.41,1.56h1.15V9.43h-.4c0,.14,0,.26,0,.38s0,.24,0,.37h-.74Z" />
      <path class="cls-3" d="M7.27,11h-2V9h2ZM6.38,9.42v.74c-.23,0-.46,0-.66,0v.4H6.86V9.42Z" />
      <path class="cls-4" d="M12.93,10.57v-.39h.74c0-.13,0-.25,0-.37s0-.25,0-.38h.4v1.15Z" />
      <path class="cls-4" d="M6.38,9.42h.48v1.16H5.72v-.4c.21,0,.43,0,.66,0Z" />
    </g>
  </g>
</svg>