<?xml version="1.0" encoding="utf-8"?>
<!-- Generator: Adobe Illustrator 19.0.0, SVG Export Plug-In . SVG Version: 6.00 Build 0)  -->
<svg version="1.1" id="图层_1" xmlns="http://www.w3.org/2000/svg" xmlns:xlink="http://www.w3.org/1999/xlink" x="0px" y="0px"
	 viewBox="0 0 48 48" style="enable-background:new 0 0 48 48;" xml:space="preserve">
<style type="text/css">
	.st0{fill:url(#XMLID_2_);}
	.st1{fill:#419DFF;}
	.st2{fill:none;}
</style>
<g id="XMLID_1168_">
	<path id="XMLID_1173_" class="st1" d="M38.2,39.5c-5.7,1.2-12.9-3.5-13.9-10.7c-1-7.2,3.7-11.8,8.5-12.6c4.8-0.9,9.1,1.6,10,5.2
		c0.9,3.6-1.2,5.2-1.2,5.2c6.8-2.1,6.5-14.3,6.5-14.3c-5.2,6.2-9.3-7.5-9.3-7.5C38.5,13,25.6,6.5,25.1,6.3c0.2,0.1,3.7,2.1-2,8
		c-5.9,6.1-6.3,14.5-1.8,20.8c4.5,6.3,9.3,6.8,9.3,6.8c-6.8,0.2-11.5-6.2-14-9.6c-2.6-3.4-5.5-5.8-9.2-5.8s-7.2,3.1-7.2,3.1
		c14.5,0.2,14,10.6,27.2,13.7c13.2,3.1,18-7.7,18-7.7S43.9,38.3,38.2,39.5z M38.2,8.1c-0.9,6.5-9.7,0.4-9.7,0.4
		C36.8,12.1,38.2,8.1,38.2,8.1z M23,16.2c-3.7,3.5-4.1,9.8-4.1,9.8s0-6.6,4.6-11.1c0,0,2.3-2.1,3.1-4.3C26.6,10.5,26.7,12.7,23,16.2
		z M3,29c0,0,5-1.5,8,2.6C11.1,31.5,7.8,29.2,3,29z"/>
	<path id="XMLID_1170_" class="st1" d="M40.2,32.9c-0.9,0.7-2.3-1.9-4.3-1.9c-2-0.1-5.4,3.5-5.4,3.5s2.4-0.9,5-1.5
		c2.6-0.6,4.3,1.8,4.5,1.8c0.2,0,1.2-1.6,1.9-2.1c0.7-0.6,2.9,0.3,2.9,0.3C41.5,29.4,41.1,32.2,40.2,32.9z M33.7,32.2
		c0,0,1.6-0.9,2.3-0.9c0.7,0.1,1,0.3,1.1,0.6C37.1,31.9,36.1,31.4,33.7,32.2z"/>
	<rect id="XMLID_1169_" x="0.1" y="4.7" class="st2" width="47.9" height="38.9"/>
</g>
</svg>
